<svg width="396" height="312" viewBox="0 0 396 312" fill="none" xmlns="http://www.w3.org/2000/svg">
<g clip-path="url(#clip0_97_1684)">
<path d="M338.565 136.993C336.814 144.578 330.853 150.453 323.276 152.053L322.113 152.298" stroke="#F9E793" stroke-width="2" stroke-miterlimit="10"/>
<path d="M243.834 139.579C239.933 147.506 232.247 152.446 224.134 152.253L222.887 152.221" stroke="#F9E793" stroke-width="2" stroke-miterlimit="10"/>
<path d="M102.243 122.874C85.5003 121.004 73.1826 119.314 65.2766 117.798C64.2689 117.566 63.4809 117.037 62.9254 116.199C62.3635 115.367 62.1374 114.438 62.2537 113.419C65.296 86.3816 69.3394 60.8406 74.397 36.8024C74.6166 35.9188 75.0816 35.2158 75.7986 34.6998C76.5156 34.1838 77.3876 33.9645 78.4081 34.0355C83.7886 34.3192 93.8197 35.2803 108.521 36.9185C116.104 37.7634 122.899 39.5822 128.913 42.375C134.92 45.1677 139.958 48.7796 144.014 53.2106C148.07 57.648 151.003 62.9884 152.805 69.2253C154.614 75.4686 155.092 82.3054 154.258 89.7419C153.464 96.785 151.772 102.667 149.169 107.388C146.572 112.11 143.026 115.734 138.55 118.269C134.067 120.797 128.867 122.416 122.964 123.126C117.06 123.835 110.155 123.751 102.255 122.861L102.243 122.874ZM105.705 92.1154L106.292 92.1799C109.354 92.5217 111.925 91.9929 113.992 90.5997C116.052 89.2066 117.267 86.9427 117.615 83.8146C118.229 78.3388 117.796 74.0174 116.298 70.8635C114.799 67.7031 112.429 65.9423 109.167 65.5747L108.695 65.5231C107.868 65.4328 107.171 65.6005 106.602 66.0326C106.034 66.4648 105.705 67.1291 105.601 68.0321C104.665 74.901 103.89 81.7894 103.282 88.6906C103.179 89.6258 103.354 90.4127 103.825 91.0448C104.29 91.6768 104.917 92.0251 105.705 92.1154Z" fill="#F9E793" stroke="black" stroke-miterlimit="10"/>
<path d="M233.448 131.007C226.918 130.356 221.776 129.691 218.036 129.001C217.061 128.782 216.26 128.292 215.627 127.511C214.988 126.731 214.716 125.88 214.807 124.938C218.411 91.6638 222.196 65.9422 226.156 47.7797C226.285 46.8832 226.724 46.1802 227.473 45.6836C228.216 45.1805 229.069 44.9805 230.005 45.0708C241.289 45.8706 252.089 46.7865 262.392 47.8055C277.971 49.3535 288.558 50.5596 294.151 51.4303C295.211 51.5786 296.031 52.0172 296.612 52.7396C297.194 53.4748 297.471 54.3649 297.446 55.4291C297 65.8713 296.386 75.5265 295.624 84.3949C295.495 85.6849 294.804 86.5104 293.564 86.8587C292.317 87.2135 291.251 86.8587 290.36 85.8332C287.331 81.9698 283.952 79.1835 280.232 77.4679C276.511 75.7523 272.132 74.6494 267.094 74.1463C264.026 73.8431 261.733 74.1721 260.234 75.1266C258.723 76.0812 257.902 77.2938 257.76 78.7385L257.689 79.448C257.315 83.2082 260.783 85.4527 268.102 86.1815C269.678 86.3363 271.118 86.433 272.429 86.4653C273.74 86.4975 275.504 86.504 277.732 86.4846C279.954 86.4653 281.588 86.4524 282.628 86.433C283.662 86.4201 284.482 86.7555 285.089 87.4457C285.696 88.1358 286 89.0387 286.013 90.1481C286.058 91.2962 286.077 92.7732 286.077 94.5726C286.077 96.3721 286.039 98.4038 285.974 100.674C285.903 102.938 285.877 104.447 285.877 105.202C285.774 106.614 285.199 107.485 284.153 107.82C283.106 108.156 282.221 107.949 281.504 107.201C275.446 103.473 269.826 101.416 264.659 101.022C261.184 100.797 258.736 101.287 257.334 102.493C255.926 103.699 255.08 105.673 254.809 108.414C254.641 110.058 254.621 112 254.731 114.219C254.847 116.45 255.06 119.069 255.377 122.087C255.693 125.106 255.881 127.273 255.952 128.589C255.971 129.621 255.584 130.504 254.789 131.233C254.001 131.968 253.09 132.336 252.057 132.355C248.957 132.355 242.762 131.904 233.48 130.988H233.461L233.448 131.007Z" fill="#F9E793" stroke="black" stroke-miterlimit="10"/>
<path d="M307.774 145.951C300.268 146.177 294.707 146.183 291.103 145.977C290.031 145.893 289.133 145.519 288.403 144.874C287.673 144.229 287.292 143.391 287.26 142.372C286.271 109.626 286.536 83.7177 288.06 64.6522C288.151 63.7493 288.506 62.9817 289.12 62.3755C289.733 61.7627 290.515 61.3887 291.458 61.2403C294.649 60.8275 299.228 60.5308 305.197 60.3632C311.004 60.189 315.57 60.2084 318.91 60.4212C319.904 60.5115 320.699 60.8404 321.312 61.4145C321.926 61.9885 322.301 62.7238 322.449 63.6267C325.117 82.5696 326.945 108.42 327.933 141.166C327.965 142.146 327.623 142.997 326.912 143.707C326.202 144.416 325.311 144.848 324.251 144.997C320.783 145.416 315.292 145.738 307.787 145.958H307.774V145.951Z" fill="#F9E793" stroke="black" stroke-miterlimit="10"/>
<path d="M86.7146 269.477C70.515 268.948 55.5555 268.264 41.8362 267.419C39.9113 267.258 38.387 266.774 37.2437 265.974C36.1069 265.181 35.5578 264.085 35.6095 262.711C35.6418 255.623 36.1262 248.425 37.0628 241.111C37.5602 238.073 38.7164 235.222 40.5314 232.545C42.3529 229.875 44.5555 227.54 47.1392 225.56C49.7228 223.58 52.6101 221.678 55.7816 219.859C58.953 218.04 62.1568 216.473 65.3928 215.15C68.6289 213.828 71.7745 212.506 74.8362 211.177C77.8914 209.849 80.6171 208.636 83.0006 207.527C85.384 206.424 87.3024 205.244 88.7557 203.979C90.209 202.722 90.9518 201.458 90.9906 200.181C91.0487 198.31 89.8602 196.794 87.4316 195.634C85.0029 194.473 81.6764 193.821 77.478 193.679C73.3764 193.544 68.5966 194.24 63.1321 195.762C57.6676 197.285 52.9976 199.162 49.1092 201.4C48.1403 202.303 47.1198 202.786 46.0605 202.851C45.0012 202.915 44.1163 202.477 43.438 201.548C42.7469 200.619 42.5079 199.284 42.7146 197.575C43.1861 192.176 44.4715 182.489 46.5643 168.519C46.9325 166.461 48.0887 165.171 50.0264 164.649C61.2783 162.308 75.0816 161.405 91.4298 161.934C107.184 162.45 118.843 165.068 126.4 169.796C133.957 174.523 137.574 181.876 137.245 191.86C137.116 195.84 136.127 199.51 134.287 202.844C132.446 206.185 130.12 208.965 127.304 211.184C124.488 213.409 121.375 215.421 117.977 217.234C114.58 219.046 111.208 220.594 107.849 221.89C104.497 223.187 101.429 224.399 98.6383 225.547C95.8608 226.689 93.5936 227.869 91.8497 229.095C90.0992 230.32 89.2337 231.571 89.2402 232.855C89.1756 234.822 89.97 236.267 91.6171 237.176C93.2707 238.092 96.2678 238.621 100.615 238.763C106.15 238.944 111.796 238.215 117.564 236.576C123.332 234.945 128.409 232.597 132.814 229.54C134.545 228.024 136.25 227.611 137.936 228.308C139.622 229.004 140.416 230.552 140.339 232.965C139.809 241.465 139.028 252.494 137.994 266.052C137.962 267.084 137.632 268.051 137.006 268.935C136.379 269.825 135.649 270.283 134.81 270.302C131.445 270.489 127.362 270.58 122.563 270.567C117.764 270.56 113.611 270.496 110.11 270.38C106.602 270.264 102.223 270.096 96.9589 269.877C91.6946 269.651 88.2777 269.515 86.7017 269.464L86.7211 269.483H86.7146V269.477Z" fill="#F9E793" stroke="black" stroke-miterlimit="10"/>
<path d="M211.907 270.741C204.808 271.276 197.845 271.592 191.018 271.708C189.758 271.708 188.621 271.238 187.594 270.309C186.567 269.387 186.07 268.116 186.096 266.516C186.134 264.407 186.206 261.879 186.315 258.938C186.419 255.997 186.49 253.514 186.541 251.476C186.587 249.437 186.554 247.677 186.438 246.18C186.244 243.639 185.469 241.853 184.113 240.827C182.75 239.802 180.748 239.389 178.099 239.589C175.406 239.795 170.348 240.279 162.946 241.027C155.537 241.782 149.614 242.356 145.17 242.743C140.726 243.13 136.295 243.388 131.884 243.523C129.72 243.536 127.84 242.723 126.232 241.091C124.624 239.453 123.719 237.293 123.519 234.597C122.13 216.344 123.435 195.769 127.427 172.853C127.64 171.737 128.183 170.751 129.055 169.912C129.92 169.074 130.915 168.532 132.058 168.293C136.224 167.584 141.585 166.977 148.129 166.481C157.126 165.804 163.734 165.507 167.965 165.591C169.528 165.623 170.703 166.139 171.511 167.126C172.318 168.119 172.551 169.403 172.221 170.983C171.408 176.162 170.723 182.425 170.174 189.797C169.625 197.156 169.502 203.135 169.799 207.727C170.174 212.616 172.351 214.906 176.349 214.602L177.847 214.486C179.85 214.331 181.4 213.583 182.504 212.222C183.609 210.862 184.074 209.01 183.893 206.669C183.648 202.077 181.949 190.016 178.81 170.499C178.545 168.964 178.771 167.674 179.494 166.616C180.218 165.558 181.297 164.849 182.724 164.488C187.09 163.753 193.672 163.062 202.47 162.398C209.161 161.895 214.555 161.689 218.631 161.785C219.845 161.843 220.878 162.218 221.731 162.901C222.59 163.591 223.139 164.501 223.372 165.636C226.814 182.528 228.933 196.137 229.708 206.45C229.74 206.901 229.986 207.321 230.445 207.708C230.903 208.101 231.381 208.282 231.885 208.243C232.834 208.172 234.191 208.043 235.967 207.862C237.73 207.682 239.048 207.553 239.894 207.488C240.747 207.424 241.451 207.65 242.019 208.159C242.588 208.669 242.904 209.397 242.975 210.346C243.776 216.905 244.274 223.484 244.474 230.088C244.558 231.185 244.371 232.068 243.918 232.726C243.466 233.384 242.84 233.745 242.039 233.803L235.295 234.313C234.546 234.371 233.965 234.642 233.545 235.125C233.125 235.609 232.944 236.222 233.002 236.97C233.216 239.814 233.577 244.233 234.087 250.237C234.591 256.242 234.959 260.763 235.192 263.807C235.289 265.052 234.927 266.129 234.12 267.045C233.306 267.955 232.279 268.509 231.045 268.709C224.483 269.599 218.095 270.289 211.9 270.754H211.913V270.741H211.907Z" fill="#F9E793" stroke="black" stroke-miterlimit="10"/>
<path d="M259.55 269.206C251.153 268.226 244.752 267.278 240.327 266.368C238.971 266.059 237.866 265.439 237.007 264.491C236.148 263.55 235.786 262.485 235.922 261.318C240.792 219.962 246.082 187.952 251.786 165.281C252.057 164.224 252.722 163.372 253.769 162.727C254.815 162.076 255.984 161.76 257.276 161.766C261.442 161.857 266.842 162.289 273.469 163.063C282.305 164.095 288.855 165.062 293.131 165.952C294.739 166.287 295.921 167.036 296.709 168.197C297.491 169.351 297.652 170.648 297.187 172.079C294.617 182.928 292.821 192.061 291.794 199.471C291.529 201.716 292.02 203.586 293.26 205.07C294.507 206.553 296.18 207.418 298.292 207.663L299.106 207.759C301.166 208.004 302.936 207.54 304.422 206.373C305.901 205.212 306.773 203.503 307.038 201.252C307.354 198.169 307.774 188.875 308.31 173.382C308.342 171.854 308.82 170.628 309.75 169.719C310.681 168.816 311.94 168.351 313.536 168.339C318.044 168.467 324.697 169.048 333.481 170.073C340.251 170.867 345.605 171.692 349.539 172.544C350.799 172.84 351.832 173.402 352.659 174.246C353.479 175.085 353.899 176.078 353.918 177.22C354.332 199.465 352.039 231.836 347.039 274.314C346.904 275.488 346.329 276.443 345.321 277.159C344.314 277.887 343.073 278.229 341.575 278.203C337.208 278.087 330.73 277.526 322.146 276.527C312.767 275.437 305.823 274.417 301.302 273.495C299.842 273.173 298.705 272.515 297.878 271.496C297.052 270.483 296.832 269.161 297.226 267.523C297.575 265.833 298.176 263.066 299.028 259.222C299.881 255.384 300.578 252.024 301.114 249.134C301.657 246.251 302.083 243.465 302.4 240.776C302.691 238.331 302.264 236.312 301.134 234.719C300.003 233.126 298.382 232.21 296.27 231.959L295.456 231.862C293.396 231.617 291.613 232.172 290.114 233.507C288.609 234.842 287.725 236.686 287.447 239.028C287.124 241.762 286.885 244.497 286.743 247.238C286.594 249.973 286.459 253.553 286.336 257.971C286.213 262.389 286.136 265.143 286.11 266.226C286.11 267.91 285.58 269.135 284.514 269.909C283.455 270.677 282.202 271.077 280.755 271.102C276.143 270.96 269.077 270.328 259.556 269.219V269.206H259.55Z" fill="#F9E793" stroke="black" stroke-miterlimit="10"/>
<path d="M190.243 148.815C171.143 151.53 159.607 153.007 155.654 153.259C154.652 153.284 153.761 152.981 152.954 152.362C152.146 151.736 151.668 150.924 151.52 149.911C147.127 116.211 144.641 90.3994 144.066 72.4562C143.982 71.5984 144.247 70.8373 144.854 70.1923C145.461 69.5538 146.23 69.1217 147.153 68.9153C151.455 67.9865 161.958 66.3354 178.674 63.949C194.564 61.6916 205.363 60.3113 211.086 59.8212C212.113 59.718 212.985 59.9501 213.702 60.5242C214.419 61.0982 214.891 61.8657 215.11 62.8267C216.26 68.309 217.746 76.7711 219.587 88.2C219.8 89.6835 219.386 90.7154 218.353 91.3024C217.319 91.8893 216.073 91.8248 214.613 91.1153C206.3 87.7228 198.11 86.6005 190.049 87.7486C186.955 88.1936 184.797 89.0127 183.577 90.2188C182.349 91.4249 181.846 92.7342 182.039 94.1338L182.104 94.6046C182.504 97.4103 186.348 98.3003 193.627 97.2619C195.468 96.9975 197.935 96.5525 201.042 95.9397C204.149 95.3141 206.623 94.8626 208.451 94.5595C209.497 94.3273 210.44 94.4756 211.293 94.9916C212.146 95.5076 212.649 96.288 212.804 97.3393L213.98 106.363C214.142 107.491 213.844 108.362 213.095 108.962C212.339 109.568 211.493 109.639 210.55 109.175C207.062 108.239 204.207 107.659 202.005 107.433C199.796 107.207 197.457 107.298 195.003 107.685C191.173 108.272 188.486 109.168 186.942 110.381C185.398 111.593 184.778 113.251 185.075 115.36L185.243 116.527C185.941 121.403 190.695 123.209 199.505 121.952C204.989 121.171 209.407 119.623 212.772 117.321C216.131 115.018 219.154 111.342 221.828 106.304C222.261 105.447 222.932 104.886 223.837 104.615C224.741 104.35 225.6 104.44 226.42 104.905C227.247 105.369 227.796 106.111 228.061 107.143C230.522 116.54 232.705 126.847 234.591 138.076C234.779 139.082 234.591 139.998 234.055 140.804C233.513 141.617 232.757 142.152 231.801 142.41C227.622 143.32 213.767 145.454 190.243 148.802H190.249V148.815H190.243Z" fill="#F9E793" stroke="black" stroke-miterlimit="10"/>
<path d="M54.5672 42.1493C58.1779 28.1727 69.5978 17.5499 83.8467 14.9249L86.0299 14.5186" stroke="#F9E793" stroke-width="2" stroke-miterlimit="10"/>
<path d="M212.107 50.9915C215.511 42.0908 224.205 35.8991 234.404 35.1186L235.974 34.9961" stroke="#F9E793" stroke-width="2" stroke-miterlimit="10"/>
<path d="M366.365 270.664C361.598 284.292 349.332 293.934 334.915 295.373L332.706 295.592" stroke="#F9E793" stroke-width="2" stroke-miterlimit="10"/>
<path d="M29.5314 175.839C33.1938 161.876 44.6524 151.298 58.9078 148.718L61.091 148.318" stroke="#F9E793" stroke-width="2" stroke-miterlimit="10"/>
<path d="M200.887 284.35C188.57 285.885 176.517 280.216 169.987 269.819L168.985 268.226" stroke="#F9E793" stroke-width="2" stroke-miterlimit="10"/>
<path d="M366.94 311.955V312.2H367.56V311.955H366.94Z" fill="black"/>
</g>
<defs>
<clipPath id="clip0_97_1684">
<rect width="396" height="312" fill="white"/>
</clipPath>
</defs>
</svg>
