<svg width="427" height="296" viewBox="0 0 427 296" fill="none" xmlns="http://www.w3.org/2000/svg">
<rect y="26.3115" width="427" height="269.689" fill="#0029FF"/>
<path d="M58.2273 0H427V26.3111H0L58.2273 0Z" fill="#2614D0"/>
<path d="M198.291 133.672C203.411 129.405 207.491 125.858 210.531 123.032C213.571 120.152 216.104 117.165 218.131 114.072C220.158 110.978 221.171 107.938 221.171 104.952C221.171 102.232 220.531 100.098 219.251 98.5515C217.971 97.0049 215.998 96.2315 213.331 96.2315C210.664 96.2315 208.611 97.1382 207.171 98.9515C205.731 100.712 204.984 103.138 204.931 106.232H194.051C194.264 99.8315 196.158 94.9782 199.731 91.6715C203.358 88.3649 207.944 86.7115 213.491 86.7115C219.571 86.7115 224.238 88.3382 227.491 91.5915C230.744 94.7915 232.371 99.0315 232.371 104.312C232.371 108.472 231.251 112.445 229.011 116.232C226.771 120.018 224.211 123.325 221.331 126.152C218.451 128.925 214.691 132.285 210.051 136.232H233.651V145.512H194.131V137.192L198.291 133.672Z" fill="#F9E793"/>
</svg>
