<svg width="390" height="286" viewBox="0 0 390 286" fill="none" xmlns="http://www.w3.org/2000/svg">
<rect y="25.7529" width="389.413" height="260.247" fill="#0029FF"/>
<path d="M0 0.363281H332.771L389.413 25.7532H0L0 0.363281Z" fill="#2614D0"/>
<path d="M176.468 94.41C176.701 89.7433 178.335 86.15 181.368 83.63C184.448 81.0633 188.485 79.78 193.478 79.78C196.885 79.78 199.801 80.3867 202.228 81.6C204.655 82.7667 206.475 84.3767 207.688 86.43C208.948 88.4367 209.578 90.7233 209.578 93.29C209.578 96.23 208.808 98.7267 207.268 100.78C205.775 102.787 203.978 104.14 201.878 104.84V105.12C204.585 105.96 206.685 107.453 208.178 109.6C209.718 111.747 210.488 114.5 210.488 117.86C210.488 120.66 209.835 123.157 208.528 125.35C207.268 127.543 205.378 129.27 202.858 130.53C200.385 131.743 197.398 132.35 193.898 132.35C188.625 132.35 184.331 131.02 181.018 128.36C177.705 125.7 175.955 121.78 175.768 116.6H185.288C185.381 118.887 186.151 120.73 187.598 122.13C189.091 123.483 191.121 124.16 193.688 124.16C196.068 124.16 197.888 123.507 199.148 122.2C200.455 120.847 201.108 119.12 201.108 117.02C201.108 114.22 200.221 112.213 198.448 111C196.675 109.787 193.921 109.18 190.188 109.18H188.158V101.13H190.188C196.815 101.13 200.128 98.9133 200.128 94.48C200.128 92.4733 199.521 90.91 198.308 89.79C197.141 88.67 195.438 88.11 193.198 88.11C191.005 88.11 189.301 88.7167 188.088 89.93C186.921 91.0967 186.245 92.59 186.058 94.41H176.468Z" fill="#F9E793"/>
</svg>
