<?xml version="1.0" encoding="UTF-8"?>
<svg xmlns="http://www.w3.org/2000/svg" xmlns:xlink="http://www.w3.org/1999/xlink" class="show-for-medium" role="img" preserveAspectRatio="xMinYMid" width="401.965" height="112" viewBox="0 0 401.965 112">
  <defs>
    <clipPath id="a">
      <rect width="401.965" height="112" fill="none"></rect>
    </clipPath>
  </defs>
  <rect width="401.965" height="112" fill="none"></rect>
  <path d="M176.434,63.531l.041-12.975-5.6,9.761h-4.739l-5.191-9.557.041,12.771H154.6V42.066h8l6.1,11.374,6.14-11.374h7.994V63.531Z" transform="translate(8.574 2.333)" fill="#1b170c"></path>
  <path d="M299.613,42.576h6.309V63.955h-6.309Zm-.121-8.161h6.553v5.606h-6.553Z" transform="translate(16.609 1.909)" fill="#1b170c"></path>
  <g transform="translate(0 0)">
    <g transform="translate(0 0)" clip-path="url(#a)">
      <path d="M320.351,54.287c-2.02,0-7.046.2-7.046,3.092a2.118,2.118,0,0,0,2.267,2.06,7.233,7.233,0,0,0,4.779-2.06Zm6.544,9.312h-6.223l-.123-2.061a10.4,10.4,0,0,1-6.137,2.515c-3.875,0-7.211-2.6-7.211-6.674,0-3.008,2.143-5.07,4.781-6.1a21.751,21.751,0,0,1,8.448-1.071c-.043-2.267-.662-3.626-3.175-3.626-2.184,0-3.707,1.029-5.273,2.433l-4.122-3.63a13.361,13.361,0,0,1,9.643-3.751c5.519,0,9.393,2.806,9.393,8.616Z" transform="translate(17.037 2.309)" fill="#1b170c"></path>
      <path d="M340.532,47.486c-.37,0-.74-.125-1.113-.125a5.072,5.072,0,0,0-3.751,1.689,5.352,5.352,0,0,0-.9,1.65V63.55h-6.3V42.129h6.14l.122,3.009a5.816,5.816,0,0,1,5.356-3.421,11.129,11.129,0,0,1,3.089.412c-.246.535-2.635,5.358-2.635,5.358" transform="translate(18.216 2.314)" fill="#1b170c"></path>
      <path d="M355.234,48.565a6.564,6.564,0,0,0-4.287-1.937,3.9,3.9,0,0,0-3,1.693,9.422,9.422,0,0,0-1.113,4.984c0,2.761.945,6.592,4.368,6.592a6.264,6.264,0,0,0,4.037-1.853Zm.124,15.449-.167-1.851a8.422,8.422,0,0,1-5.686,2.143c-6.263,0-9.187-5.313-9.187-10.959a11.6,11.6,0,0,1,2.761-8.119,8.605,8.605,0,0,1,6.547-3.133,8.412,8.412,0,0,1,5.607,2.269v-11h6.388V64.014Z" transform="translate(18.874 1.85)" fill="#1b170c"></path>
      <path d="M194.249,46.462c-3.626,0-4.781,3.251-4.781,6.345s1.156,6.3,4.781,6.3,4.78-3.215,4.78-6.3-1.154-6.345-4.78-6.345m0,17.469C187.534,63.93,183,59.522,183,52.807s4.533-11.17,11.248-11.17S205.5,46.089,205.5,52.807,200.965,63.93,194.249,63.93" transform="translate(10.149 2.309)" fill="#1b170c"></path>
      <path d="M219.506,63.55V49.462c0-1.483-.043-2.471-1.9-2.471-1.977,0-4.036,1.645-5.44,2.882V63.55h-6.382V42.171h6.18l.081,3.046c2.554-2.143,5.15-3.5,8.528-3.5,3.006,0,5.316,1.687,5.316,4.863V63.55Z" transform="translate(11.413 2.314)" fill="#1b170c"></path>
      <path d="M237.538,64.351c-5.154,0-6.882-3.008-6.882-7.745,0-3.008.039-5.977.039-8.983l-4.406.041V42.474l4.492.043.161-4.619,5.937-1.647v6.265l6.673-.043v5.191L237,47.624v8.614c.045.946-.285,2.964,1.155,2.964,1.113,0,2.556-1.029,3.5-1.605l2.8,4.2a12.152,12.152,0,0,1-6.922,2.557" transform="translate(12.55 2.01)" fill="#1b170c"></path>
      <path d="M255.014,46.92a6.2,6.2,0,0,0-3.954,1.564v9.355a6.617,6.617,0,0,0,4.326,1.895c3.42,0,3.955-4.659,3.955-7.211,0-2.967-.908-5.6-4.327-5.6m6.84,15.7a8.314,8.314,0,0,1-5.068,1.773,8,8,0,0,1-5.726-2.227l-.207,1.9h-6.18v-30.7h6.387V44.321a8.68,8.68,0,0,1,5.768-2.181,8.44,8.44,0,0,1,5.477,2.059c2.352,1.979,3.545,4.984,3.545,8.693,0,4.451-1.316,7.666-4,9.724" transform="translate(13.569 1.85)" fill="#1b170c"></path>
      <path d="M276.05,41.054,273,37.926l7.618-5.109,3.956,4.038Zm.822,5.811a3.8,3.8,0,0,0-3.913,3.751h7.789a3.718,3.718,0,0,0-3.877-3.751m.537,17.513c-6.963,0-11.168-4.244-11.168-11.207,0-6.262,4.163-11,10.591-11,6.3,0,10.054,4.2,10.054,10.383a12.852,12.852,0,0,1-.127,2.183H272.8a4.857,4.857,0,0,0,4.615,4.739c2.1,0,3.916-1.319,5.358-2.722l4.244,3.752a13.319,13.319,0,0,1-9.6,3.874" transform="translate(14.765 1.82)" fill="#1b170c"></path>
      <path d="M294.819,64.348c-2.8,0-5.148-.989-6.223-2.969a8.321,8.321,0,0,1-.78-4.325V33.363h6.262V56.85c0,.906-.207,2.264,1.153,2.264a9.7,9.7,0,0,0,2.02-.329l1.855,4.737a14.4,14.4,0,0,1-4.287.826" transform="translate(15.962 1.85)" fill="#1b170c"></path>
      <path d="M160.722,22.355l-3.389-.027v4.327h3.389a2.156,2.156,0,1,0,0-4.3m.261,6.412h-3.65v5.189H154.6V20.346h6.179a14.76,14.76,0,0,1,1.511.052,3.87,3.87,0,0,1,3.52,4.146c0,3.049-2.034,4.2-4.823,4.223" transform="translate(8.574 1.128)" fill="#1b170c"></path>
      <path d="M174.449,27.789h-.756c-1.747,0-5.031.1-5.031,2.53a1.98,1.98,0,0,0,2.086,2.007,5.915,5.915,0,0,0,3.7-1.879Zm2.711,6.179H174.5l-.079-1.277a7.473,7.473,0,0,1-4.249,1.59A4.009,4.009,0,0,1,166,30.319a4.155,4.155,0,0,1,2.633-3.781c1.773-.782,3.859-.678,5.762-.678,0-2.007-.287-3.624-2.685-3.624A4.646,4.646,0,0,0,168.4,23.8l-1.7-1.642a7.166,7.166,0,0,1,5.162-2.06c1.877,0,3.962.758,4.8,2.555a6.636,6.636,0,0,1,.5,2.738Z" transform="translate(9.206 1.115)" fill="#1b170c"></path>
      <path d="M184.506,35.671a10.353,10.353,0,0,1-.834,2.087,3.864,3.864,0,0,1-3.623,1.668,7.747,7.747,0,0,1-1.9-.262v-2.19a6.079,6.079,0,0,0,1.538.183c1.511,0,2.059-.782,2.476-2.112l.521-1.693a9.267,9.267,0,0,1-.7-1.434l-4.275-11.5h2.868l3.284,9.463a11.883,11.883,0,0,1,.078,1.355,11.867,11.867,0,0,1,.052-1.355l3-9.463h2.738Z" transform="translate(9.855 1.133)" fill="#1b170c"></path>
      <path d="M194.852,34.334a7.18,7.18,0,0,1-5.137-1.929l1.641-1.72A4.757,4.757,0,0,0,194.72,32.2c1.043,0,2.478-.365,2.478-1.669,0-2.554-7.093-1.851-7.093-6.361,0-2.659,2.425-4.092,4.85-4.092a7.073,7.073,0,0,1,4.486,1.46l-1.462,1.85a4.855,4.855,0,0,0-3.049-1.2c-.966,0-2.191.5-2.191,1.617a1.548,1.548,0,0,0,.549,1.12,4.649,4.649,0,0,0,1.746.807c2.215.73,4.77,1.748,4.77,4.511s-2.475,4.092-4.951,4.092" transform="translate(10.521 1.113)" fill="#1b170c"></path>
      <path d="M214.641,24.352a4.873,4.873,0,0,0-3.362-1.669,3.021,3.021,0,0,0-2.451,1.435,6.64,6.64,0,0,0-.807,3.544c0,2.242.807,4.693,3.414,4.693a4.745,4.745,0,0,0,3.205-1.617Zm.079,9.907-.1-1.173a5.327,5.327,0,0,1-3.6,1.355c-3.963,0-5.812-3.336-5.812-6.935a7.33,7.33,0,0,1,1.747-5.135,5.458,5.458,0,0,1,4.145-1.982,5.325,5.325,0,0,1,3.544,1.435V14.863h2.737v19.4Z" transform="translate(11.38 0.824)" fill="#1b170c"></path>
      <path d="M228.359,25.26a3.012,3.012,0,0,0-2.975-3.077c-2.005,0-3.021,1.565-3.282,3.389h6.258Zm2.58,2.477h-8.967a5.667,5.667,0,0,0,.6,2.529,3.571,3.571,0,0,0,3.027,1.8,4.912,4.912,0,0,0,3.412-1.59l1.721,1.668a6.843,6.843,0,0,1-5.134,2.033c-4.356,0-6.416-2.972-6.416-7.09,0-3.651,2.086-6.962,6.049-6.962,3.884,0,5.788,2.893,5.788,6.519a7.5,7.5,0,0,1-.079,1.095" transform="translate(12.156 1.116)" fill="#1b170c"></path>
      <path d="M102.186,20.342H62.623L82.337,57.1Z" transform="translate(3.473 1.128)" fill="#af0623"></path>
      <rect width="18.782" height="69.079" transform="translate(21.472 21.47)" fill="#af0623"></rect>
      <path d="M89.675,77.91H74.356L57.637,47V87.978h50.086V46.342Z" transform="translate(3.196 2.57)" fill="#af0623"></path>
      <rect width="18.782" height="69.079" transform="translate(131.501 21.47)" fill="#af0623"></rect>
      <path d="M161.021,72.209,157.792,80.7h6.673Zm5.628,14.424-1.568-4.151h-8.088l-1.537,4.151h-2.307l6.55-16.02h2.768l6.488,16.02Z" transform="translate(8.493 3.916)" fill="#af0623"></path>
      <path d="M184.175,81.886a5.627,5.627,0,0,1-.492,2.857c-.922,1.663-3.445,2.218-5.166,2.218-5.228,0-7.749-3.324-7.749-8.334,0-4.676,2.829-8.366,7.749-8.366a7.525,7.525,0,0,1,5.566,2.43l-1.414,1.444A5.852,5.852,0,0,0,178.3,71.98c-3.659,0-5.319,3.479-5.319,6.675,0,3.445,1.6,6.521,5.412,6.521,1.906,0,3.751-.433,3.751-2.736,0-.833,0-1.691-.031-2.552h-3.966V78.1h6.027Z" transform="translate(9.471 3.897)" fill="#af0623"></path>
      <path d="M200.957,81.886a5.637,5.637,0,0,1-.491,2.857c-.924,1.663-3.445,2.218-5.168,2.218-5.228,0-7.75-3.324-7.75-8.334,0-4.676,2.83-8.366,7.75-8.366a7.526,7.526,0,0,1,5.565,2.43l-1.414,1.444a5.853,5.853,0,0,0-4.366-2.154c-3.659,0-5.32,3.479-5.32,6.675,0,3.445,1.6,6.521,5.412,6.521,1.905,0,3.752-.433,3.752-2.736,0-.833,0-1.691-.033-2.552h-3.966V78.1h6.028Z" transform="translate(10.401 3.897)" fill="#af0623"></path>
      <path d="M205.174,86.633V70.613h2.03l-.03,14.205,7.932-.03v1.844Z" transform="translate(11.379 3.916)" fill="#af0623"></path>
      <path d="M224.738,72.1c-3.814,0-5.323,3.108-5.323,6.521s1.508,6.52,5.323,6.52c3.842,0,5.351-3.106,5.351-6.52S228.58,72.1,224.738,72.1m0,14.791c-4.921,0-7.535-3.443-7.535-8.148,0-4.522,2.736-8.368,7.535-8.368,4.828,0,7.563,3.846,7.563,8.368,0,4.705-2.613,8.148-7.563,8.148" transform="translate(12.046 3.903)" fill="#af0623"></path>
      <path d="M251.436,86.631l.063-14.178-5.26,11.44H243.6L238.43,72.271l.061,14.359h-2.061V70.642h3.478L244.89,82.3l5.1-11.653H253.5V86.631Z" transform="translate(13.112 3.918)" fill="#af0623"></path>
      <path d="M262.4,68.681l-.982-1.044,4.03-2.706,1.412,1.476Zm-4.026,18.267V70.988h10.794v1.844l-8.735-.032v4.982l7.137-.031v1.816l-7.137-.031v5.6l8.827-.03v1.844Z" transform="translate(14.329 3.601)" fill="#af0623"></path>
      <path d="M280.443,72.305h-4.949v5.413h4.735c1.721,0,3.2-.861,3.2-2.767,0-1.844-1.228-2.646-2.982-2.646m3.473,14.331L280.321,79.5h-4.828v7.134h-2.062V70.554h6.426a13.254,13.254,0,0,1,1.571.062c2.369.244,4.182,1.689,4.182,4.211a4.359,4.359,0,0,1-3.169,4.366l3.813,7.442Z" transform="translate(15.164 3.913)" fill="#af0623"></path>
      <path d="M296.1,72.209,292.874,80.7h6.674Zm5.628,14.424-1.568-4.151h-8.087l-1.537,4.151h-2.306l6.549-16.02h2.768l6.489,16.02Z" transform="translate(15.985 3.916)" fill="#af0623"></path>
      <path d="M310.329,72.482V86.63h-2.062V72.482l-5.412.033V70.669H315.74v1.845Z" transform="translate(16.796 3.919)" fill="#af0623"></path>
      <path d="M317.59,86.629V84.877l3.043.031V72.424h-2.857V70.67h7.687v1.754H322.6V84.908l3.075-.031v1.752Z" transform="translate(17.613 3.919)" fill="#af0623"></path>
      <path d="M336.076,72.1c-3.812,0-5.321,3.108-5.321,6.521s1.508,6.52,5.321,6.52c3.845,0,5.351-3.106,5.351-6.52s-1.506-6.521-5.351-6.521m0,14.791c-4.921,0-7.535-3.443-7.535-8.148,0-4.522,2.738-8.368,7.535-8.368,4.828,0,7.566,3.846,7.566,8.368,0,4.705-2.615,8.148-7.566,8.148" transform="translate(18.22 3.903)" fill="#af0623"></path>
      <path d="M357.973,86.631l-8.24-14.147.062,14.147h-2.061V70.642h3.23l8.24,14.175-.062-14.175H361.2V86.631Z" transform="translate(19.285 3.918)" fill="#af0623"></path>
    </g>
  </g>
</svg>
